<?xml version="1.0" standalone="no"?>
<!DOCTYPE svg PUBLIC "-//W3C//DTD SVG 20010904//EN"
 "http://www.w3.org/TR/2001/REC-SVG-20010904/DTD/svg10.dtd">
<svg version="1.0" xmlns="http://www.w3.org/2000/svg"
 width="675.000000pt" height="675.000000pt" viewBox="0 0 675.000000 675.000000"
 preserveAspectRatio="xMidYMid meet">
<metadata>
Created by potrace 1.14, written by Peter Selinger 2001-2017
</metadata>
<g transform="translate(0.000000,675.000000) scale(0.100000,-0.100000)"
fill="#000000" stroke="none">
<path d="M3115 6614 c-54 -5 -285 -35 -310 -40 -17 -4 -50 -11 -140 -28 -80
-16 -308 -81 -355 -101 -3 -2 -14 -6 -26 -10 -80 -26 -209 -85 -207 -94 2 -6
-2 -11 -7 -11 -6 0 -10 4 -10 9 0 10 -236 -104 -302 -146 -21 -13 -38 -21 -38
-17 0 3 -17 -8 -37 -24 -21 -16 -52 -37 -70 -46 -17 -9 -38 -25 -46 -36 -7
-11 -16 -18 -19 -15 -8 9 -73 -41 -70 -54 1 -7 -4 -11 -12 -9 -16 3 -196 -137
-196 -153 0 -6 -4 -8 -9 -5 -5 4 -59 -42 -120 -101 -61 -60 -111 -107 -111
-105 0 2 -12 -11 -27 -30 -15 -18 -57 -67 -93 -108 -80 -91 -189 -237 -257
-345 -113 -179 -208 -359 -198 -375 4 -6 1 -10 -5 -10 -6 0 -8 -4 -5 -10 3 -5
1 -10 -5 -10 -6 0 -8 -4 -5 -10 3 -5 2 -10 -3 -10 -12 0 -76 -149 -68 -157 3
-3 -1 -12 -9 -19 -30 -30 -143 -419 -131 -451 3 -8 2 -12 -3 -9 -11 7 -36
-118 -26 -133 3 -6 1 -11 -6 -11 -8 0 -10 -13 -6 -40 3 -22 1 -38 -3 -35 -5 3
-11 -25 -15 -62 -4 -38 -10 -94 -14 -125 -5 -37 -4 -62 3 -69 8 -9 8 -10 -1
-5 -24 13 -15 -453 12 -624 2 -14 7 -46 10 -72 4 -27 10 -48 14 -48 4 0 6 -13
3 -28 -5 -40 69 -336 122 -484 84 -237 241 -566 266 -560 7 1 10 -3 7 -10 -6
-17 4 -34 71 -138 89 -136 182 -259 282 -375 89 -102 310 -313 405 -387 42
-32 47 -36 75 -59 81 -67 358 -237 520 -319 126 -64 397 -168 533 -205 96 -26
218 -55 257 -61 19 -2 51 -9 70 -14 19 -5 53 -11 75 -14 22 -2 60 -7 85 -11
139 -18 249 -23 465 -20 132 2 249 5 260 8 11 3 47 8 80 11 33 4 96 14 140 22
44 8 96 17 115 20 19 3 38 8 41 10 4 2 22 6 40 9 66 11 284 84 282 94 -2 6 2
11 7 11 6 0 10 -4 10 -10 0 -9 28 -2 75 20 11 5 63 25 115 46 110 42 323 150
460 232 118 71 260 171 260 183 0 5 3 8 8 7 27 -9 411 355 528 501 164 204
373 532 366 574 -2 9 1 16 7 15 12 -3 116 210 107 219 -3 3 2 12 10 20 8 9 13
20 11 27 -2 6 2 16 9 23 15 16 75 193 69 204 -3 4 -1 9 5 11 15 5 82 257 84
318 1 19 5 38 9 41 12 9 35 178 31 229 -3 34 -1 41 7 30 8 -11 9 -5 6 27 -3
22 0 46 5 51 6 6 9 29 6 51 -2 23 -1 41 2 41 3 0 4 55 3 123 -1 67 -2 166 -2
220 0 53 -4 97 -9 97 -5 0 -7 12 -4 26 8 46 -53 410 -91 534 -7 25 -14 47 -15
50 -8 37 -107 320 -128 368 -13 29 -24 55 -24 58 0 11 -131 268 -171 335 -23
38 -45 66 -50 63 -5 -3 -7 1 -4 8 3 7 -4 27 -15 43 -130 200 -260 358 -444
540 -142 142 -148 147 -281 251 -269 212 -627 406 -935 507 -19 6 -37 14 -40
17 -3 3 -9 6 -15 6 -5 1 -55 14 -110 29 -118 32 -106 29 -220 55 -49 11 -103
22 -120 25 -16 2 -64 8 -105 14 -41 5 -93 13 -115 16 -46 7 -510 14 -570 9z"/>
</g>
</svg>
